<svg xmlns="http://www.w3.org/2000/svg" width="40" height="40" viewBox="0 0 40 40"><path style="stroke:none;fill-rule:nonzero;fill:#fff;fill-opacity:1" d="M20 38.855c10.965 0 20.012-8.527 20.012-18.855 0-5.582-2.649-10.387-6.219-13.547-1.953-1.828-4.773.578-2.746 2.54 3.125 2.757 5.035 6.652 5.047 11.007.015 8.402-7.172 15.172-16.094 15.172-8.91 0-16.082-6.77-16.082-15.172.012-4.379 1.937-8.262 5.05-11.02 2.036-1.968-.796-4.363-2.757-2.535C2.633 9.605 0 14.418 0 20c0 10.328 9.047 18.855 20 18.855m0-18.75c1.207 0 2.012-.804 2.012-1.988V2.007C22.012.813 21.207 0 20 0c-1.195 0-2 .813-2 2.008v16.11c0 1.183.805 1.987 2 1.987m0 0"/></svg>