<svg xmlns="http://www.w3.org/2000/svg" width="144" height="144"><g fill="#fff"><path d="M60.85 102.651h22.577q.856 0 1.463-.606.606-.607.606-1.498 0-.856-.606-1.462-.607-.607-1.463-.607H60.851q-.892 0-1.498.607-.606.606-.606 1.462 0 .891.606 1.498.606.606 1.498.606m11.271 10.343q4.138 0 7.187-1.872t3.299-4.94H61.671q.178 3.067 3.228 4.94 3.05 1.872 7.222 1.872" fill-opacity=".5"/><path d="M48.26 51.97q0 4.137.928 7.294.927 3.156 2.336 6.188 1.41 3.031 2.907 6.67 1.498 3.637 2.693 8.612 1.195 4.976 1.623 12.109.07.963.624 1.534.553.57 1.587.57h22.327q1.034 0 1.605-.57.57-.571.642-1.534.428-7.133 1.622-12.109 1.195-4.975 2.693-8.613t2.907-6.67q1.409-3.03 2.318-6.187.91-3.157.91-7.294 0-4.6-1.82-8.595-1.818-3.995-5.082-7.009-3.263-3.013-7.614-4.69Q77.115 30 72.12 30q-4.993 0-9.326 1.676-4.334 1.677-7.597 4.69t-5.1 7.009q-1.837 3.994-1.837 8.595"/></g></svg>