<svg xmlns="http://www.w3.org/2000/svg" width="144" height="144"><path d="M74.768 30q-5.743 0-10.593 2.211-4.85 2.212-8.132 5.956L92.065 74.19q1.178-3.281 2.319-5.92 1.141-2.64 2.104-5.1.963-2.462 1.552-5.154.588-2.693.588-6.046 0-4.6-1.837-8.595t-5.1-7.009-7.597-4.69Q79.761 30 74.768 30M63.604 94.947h22.291q2.033 0 2.247-2.104.036-.749.125-1.409.09-.66.196-1.266L51.05 52.72q-.036.856 0 1.694t.143 1.623q.392 3.174 1.355 5.885t2.211 5.51 2.532 6.26 2.372 8.096 1.694 11.056q.107.963.66 1.534.553.57 1.587.57m-.142 7.704h22.576q.892 0 1.498-.606.606-.607.606-1.498 0-.856-.606-1.462-.606-.607-1.498-.607H63.462q-.892 0-1.48.607-.589.606-.589 1.462 0 .891.588 1.498.589.606 1.48.606m11.306 10.343q4.137 0 7.168-1.872t3.282-4.94H64.282q.214 3.067 3.263 4.94 3.05 1.872 7.223 1.872" fill="#fff" fill-opacity=".5"/><path d="M100.59 96.339q.82.855 1.944.838 1.123-.018 1.943-.839.785-.784.803-1.926t-.803-1.961L45.63 33.602q-.82-.82-1.98-.802-1.159.018-1.944.802-.748.785-.748 1.962t.749 1.926Z" fill="#ff453a"/></svg>