<svg xmlns="http://www.w3.org/2000/svg" width="996.582" height="1072.75"><g fill="#fff" fill-opacity=".85"><path d="M268.066 1014.16c-64.941 0-119.628-34.668-120.605-84.472H389.16c-.976 49.804-56.64 84.472-121.094 84.472m152.832-149.414c0 15.625-12.695 27.344-28.32 27.344H143.066c-15.625 0-27.343-12.207-27.343-27.344 0-15.625 11.718-27.832 27.343-27.832h249.512c15.625 0 28.32 11.719 28.32 27.832m13.034-743.089c-13.89 18.312-25.342 38.355-33.847 59.837-34.945-25.569-80.111-40.381-129.577-40.381-111.328 0-201.66 75.684-201.66 179.688 0 112.304 72.754 133.301 109.375 410.156h184.57c17.155-127.988 41.824-201.295 63.386-254.174 12.652 29.731 26.492 61.496 39.612 99.411-16.925 49.397-32.291 110.82-40.498 196.267-1.465 15.625-10.254 26.855-28.32 26.855H144.531c-18.066 0-27.343-11.23-28.32-26.855C90.821 513.184 0 475.098 0 320.801 0 181.641 118.652 72.266 270.508 72.266c62.123 0 118.563 18.187 163.424 49.391"/><path d="M687.5 0C515.137 0 379.395 125.488 379.395 285.156c0 176.758 105.957 220.703 135.253 525.879 1.465 17.09 10.743 27.832 28.809 27.832h288.574c18.067 0 27.344-10.742 28.809-27.832 29.297-305.176 135.742-349.121 135.742-525.879C996.582 125.488 860.352 0 687.5 0m0 71.777c128.418 0 237.305 89.844 237.305 213.379 0 131.348-86.914 161.133-129.395 481.934H580.078c-42.48-320.801-128.906-350.586-128.906-481.934 0-123.535 108.398-213.379 236.328-213.379m-145.02 866.7h291.016c15.625 0 28.32-11.719 28.32-27.832 0-16.114-12.695-27.833-28.32-27.833H542.48c-16.113 0-27.832 11.719-27.832 27.833s11.719 27.832 27.832 27.832m145.508 133.793c71.778 0 132.324-36.14 136.231-89.848H551.758c2.93 53.708 63.965 89.848 136.23 89.848"/></g></svg>